<svg width="57" height="24" viewBox="0 0 57 24" fill="none" xmlns="http://www.w3.org/2000/svg">
<circle cx="45" cy="12" r="12" fill="#FFC22B"/>
<g clip-path="url(#clip0_1_317)">
<path d="M48.8572 8.14282C48.936 8.13898 49.015 8.13705 49.0943 8.13705C49.6149 8.13705 50.1227 8.22015 50.6026 8.37994C51.1051 7.705 51.3769 6.89003 51.3769 6.03329C51.3769 5.80685 51.1933 5.62314 50.9667 5.62314C50.0885 5.62314 49.2766 5.91206 48.6208 6.39977C48.7801 6.87903 48.8629 7.38606 48.8629 7.90581C48.8629 7.98495 48.861 8.064 48.8572 8.14282Z" fill="white"/>
<path d="M41.9983 14.9965C41.9015 14.8995 41.8102 14.7993 41.7236 14.6964L38.1202 18.2999C37.9599 18.46 37.9599 18.7197 38.1202 18.8798C38.2003 18.9599 38.3052 19 38.4102 19C38.5152 19 38.62 18.9599 38.7001 18.8798L42.3034 15.2766C42.1993 15.1888 42.0983 15.0965 42.0009 14.9991C42.0001 14.9982 41.9991 14.9973 41.9983 14.9965Z" fill="white"/>
<path d="M46.8805 8.71928C46.9337 8.95587 46.968 9.19513 46.9848 9.43503L48.0108 8.40921C48.0318 8.24344 48.0426 8.07542 48.0426 7.9057C48.0426 6.8535 47.6329 5.86421 46.8889 5.12016C46.8118 5.04315 46.7076 5 46.5988 5C46.49 5 46.3857 5.04315 46.3088 5.12016C45.9612 5.46773 45.6867 5.8688 45.4926 6.30481C45.5317 6.33546 45.5694 6.36826 45.605 6.40393C46.2422 7.04117 46.6832 7.84183 46.8805 8.71928Z" fill="white"/>
<path d="M51.8799 10.1111C51.1358 9.3671 50.1465 8.95737 49.0943 8.95737C48.9246 8.95737 48.7565 8.96815 48.5908 8.9893L47.5672 10.0128C48.7117 10.0922 49.7769 10.5759 50.5961 11.395C50.6318 11.4307 50.6645 11.4683 50.6952 11.5073C51.1289 11.3144 51.528 11.0417 51.8743 10.6967C51.9142 10.6582 51.9467 10.6115 51.9688 10.5582C52.0323 10.4049 51.9971 10.2285 51.8799 10.1111Z" fill="white"/>
<path d="M45.1233 11.2964L46.1437 10.2761C46.2942 9.10594 45.9218 7.88081 45.025 6.98402C44.948 6.90712 44.8436 6.86386 44.7349 6.86386C44.6262 6.86386 44.5217 6.90712 44.4448 6.98413C44.0924 7.3365 43.8211 7.73961 43.6305 8.17017C43.6689 8.20039 43.706 8.23276 43.741 8.2679C44.5602 9.08693 45.0438 10.1519 45.1233 11.2964Z" fill="white"/>
<path d="M47.2305 10.8212C47.0607 10.8212 46.8926 10.832 46.7268 10.8532L45.7031 11.8766C46.8477 11.9561 47.9129 12.4397 48.732 13.2588C48.7677 13.2944 48.8007 13.3322 48.8313 13.3712C49.2672 13.1773 49.6683 12.9027 50.016 12.5551C50.0929 12.4782 50.1361 12.3738 50.1361 12.2651C50.1361 12.1563 50.0929 12.052 50.016 11.9751C49.2719 11.231 48.2827 10.8212 47.2305 10.8212Z" fill="white"/>
<path d="M44.315 11.6335C44.315 10.5812 43.9051 9.59193 43.1611 8.84799C43.081 8.76788 42.976 8.72783 42.8711 8.72783C42.7661 8.72783 42.6611 8.76788 42.5811 8.84799C41.1431 10.2859 41.0515 12.5681 42.306 14.1138L44.283 12.1367C44.3041 11.9711 44.315 11.8031 44.315 11.6335Z" fill="white"/>
<path d="M45.3666 12.6851C45.1967 12.6851 45.0285 12.696 44.8627 12.717L42.8858 14.694C43.5853 15.2632 44.452 15.5727 45.3665 15.5728H45.3668C46.4188 15.5728 47.408 15.1631 48.152 14.4191C48.229 14.3422 48.2722 14.2377 48.2722 14.129C48.2722 14.0202 48.229 13.9159 48.152 13.839C47.408 13.0948 46.4188 12.6851 45.3666 12.6851Z" fill="white"/>
</g>
<circle cx="12" cy="12" r="12" fill="#F8593B"/>
<g clip-path="url(#clip1_1_317)">
<path d="M17.2201 13.1968C17.0597 11.1089 16.0876 9.80044 15.23 8.64582C14.4359 7.5769 13.75 6.65383 13.75 5.29217C13.75 5.18279 13.6888 5.08282 13.5916 5.0327C13.4942 4.98228 13.3771 4.99054 13.2886 5.0549C12.0006 5.97655 10.9259 7.52992 10.5505 9.01206C10.2899 10.0439 10.2554 11.204 10.2506 11.9701C9.06112 11.7161 8.79168 9.93686 8.78883 9.91747C8.77543 9.82519 8.71905 9.74488 8.63702 9.70102C8.55414 9.65773 8.45671 9.65459 8.37269 9.69618C8.31032 9.72637 6.84171 10.4726 6.75626 13.452C6.75027 13.5511 6.75 13.6505 6.75 13.7499C6.75 16.6444 9.10525 18.9996 12 18.9996C12.004 18.9998 12.0083 19.0004 12.0117 18.9996C12.0128 18.9996 12.0139 18.9996 12.0154 18.9996C14.903 18.9913 17.25 16.6393 17.25 13.7499C17.25 13.6044 17.2201 13.1968 17.2201 13.1968ZM12 18.4163C11.035 18.4163 10.25 17.5801 10.25 16.5522C10.25 16.5172 10.2497 16.4818 10.2523 16.4385C10.2639 16.0051 10.3463 15.7091 10.4366 15.5123C10.6058 15.8758 10.9082 16.2098 11.3996 16.2098C11.5608 16.2098 11.6913 16.0794 11.6913 15.9182C11.6913 15.503 11.6998 15.0239 11.8032 14.5915C11.8952 14.2082 12.1151 13.8003 12.3937 13.4734C12.5176 13.8977 12.7591 14.2412 12.995 14.5764C13.3325 15.056 13.6814 15.5519 13.7426 16.3975C13.7463 16.4476 13.7501 16.4981 13.7501 16.5522C13.75 17.58 12.965 18.4163 12 18.4163Z" fill="white"/>
</g>
<defs>
<clipPath id="clip0_1_317">
<rect width="14" height="14" fill="white" transform="translate(38 5)"/>
</clipPath>
<clipPath id="clip1_1_317">
<rect width="14" height="14" fill="white" transform="translate(5 5)"/>
</clipPath>
</defs>
</svg>
