<svg width="90" height="24" viewBox="0 0 90 24" fill="none" xmlns="http://www.w3.org/2000/svg">
<circle cx="78" cy="12" r="12" fill="#FFC22B"/>
<g clip-path="url(#clip0_5927_57)">
<path d="M81.8572 8.14282C81.936 8.13898 82.015 8.13705 82.0943 8.13705C82.6149 8.13705 83.1227 8.22015 83.6026 8.37994C84.1051 7.705 84.3769 6.89003 84.3769 6.03329C84.3769 5.80685 84.1933 5.62314 83.9667 5.62314C83.0885 5.62314 82.2766 5.91206 81.6208 6.39977C81.7801 6.87903 81.8629 7.38606 81.8629 7.90581C81.8629 7.98495 81.861 8.064 81.8572 8.14282Z" fill="white"/>
<path d="M74.9983 14.9965C74.9015 14.8995 74.8102 14.7993 74.7236 14.6964L71.1202 18.2999C70.9599 18.46 70.9599 18.7197 71.1202 18.8798C71.2003 18.9599 71.3052 19 71.4102 19C71.5152 19 71.62 18.9599 71.7001 18.8798L75.3034 15.2766C75.1993 15.1888 75.0983 15.0965 75.0009 14.9991C75.0001 14.9982 74.9991 14.9973 74.9983 14.9965Z" fill="white"/>
<path d="M79.8805 8.71928C79.9337 8.95587 79.968 9.19513 79.9848 9.43503L81.0108 8.40921C81.0318 8.24344 81.0426 8.07542 81.0426 7.9057C81.0426 6.8535 80.6329 5.86421 79.8889 5.12016C79.8118 5.04315 79.7076 5 79.5988 5C79.49 5 79.3857 5.04315 79.3088 5.12016C78.9612 5.46773 78.6867 5.8688 78.4926 6.30481C78.5317 6.33546 78.5694 6.36826 78.605 6.40393C79.2422 7.04117 79.6832 7.84183 79.8805 8.71928Z" fill="white"/>
<path d="M84.8799 10.1111C84.1358 9.3671 83.1465 8.95737 82.0943 8.95737C81.9246 8.95737 81.7565 8.96815 81.5908 8.9893L80.5672 10.0128C81.7117 10.0922 82.7769 10.5759 83.5961 11.395C83.6318 11.4307 83.6645 11.4683 83.6952 11.5073C84.1289 11.3144 84.528 11.0417 84.8743 10.6967C84.9142 10.6582 84.9467 10.6115 84.9688 10.5582C85.0323 10.4049 84.9971 10.2285 84.8799 10.1111Z" fill="white"/>
<path d="M78.1233 11.2964L79.1437 10.2761C79.2942 9.10594 78.9218 7.88081 78.025 6.98402C77.948 6.90712 77.8436 6.86386 77.7349 6.86386C77.6262 6.86386 77.5217 6.90712 77.4448 6.98413C77.0924 7.3365 76.8211 7.73961 76.6305 8.17017C76.6689 8.20039 76.706 8.23276 76.741 8.2679C77.5602 9.08693 78.0438 10.1519 78.1233 11.2964Z" fill="white"/>
<path d="M80.2305 10.8212C80.0607 10.8212 79.8926 10.832 79.7268 10.8532L78.7031 11.8766C79.8477 11.9561 80.9129 12.4397 81.732 13.2588C81.7677 13.2944 81.8007 13.3322 81.8313 13.3712C82.2672 13.1773 82.6683 12.9027 83.016 12.5551C83.0929 12.4782 83.1361 12.3738 83.1361 12.2651C83.1361 12.1563 83.0929 12.052 83.016 11.9751C82.2719 11.231 81.2827 10.8212 80.2305 10.8212Z" fill="white"/>
<path d="M77.315 11.6335C77.315 10.5812 76.9051 9.59193 76.1611 8.84799C76.081 8.76788 75.976 8.72783 75.8711 8.72783C75.7661 8.72783 75.6611 8.76788 75.5811 8.84799C74.1431 10.2859 74.0515 12.5681 75.306 14.1138L77.283 12.1367C77.3041 11.9711 77.315 11.8031 77.315 11.6335Z" fill="white"/>
<path d="M78.3666 12.6851C78.1967 12.6851 78.0285 12.696 77.8627 12.717L75.8858 14.694C76.5853 15.2632 77.452 15.5727 78.3665 15.5728H78.3668C79.4188 15.5728 80.408 15.1631 81.152 14.4191C81.229 14.3422 81.2722 14.2377 81.2722 14.129C81.2722 14.0202 81.229 13.9159 81.152 13.839C80.408 13.0948 79.4188 12.6851 78.3666 12.6851Z" fill="white"/>
</g>
<circle cx="45" cy="12" r="12" fill="#F8593B"/>
<g clip-path="url(#clip1_5927_57)">
<path d="M50.2201 13.1968C50.0597 11.1089 49.0876 9.80044 48.23 8.64582C47.4359 7.5769 46.75 6.65383 46.75 5.29217C46.75 5.18279 46.6888 5.08282 46.5916 5.0327C46.4942 4.98228 46.3771 4.99054 46.2886 5.0549C45.0006 5.97655 43.9259 7.52992 43.5505 9.01206C43.2899 10.0439 43.2554 11.204 43.2506 11.9701C42.0611 11.7161 41.7917 9.93686 41.7888 9.91747C41.7754 9.82519 41.7191 9.74488 41.637 9.70102C41.5541 9.65773 41.4567 9.65459 41.3727 9.69618C41.3103 9.72637 39.8417 10.4726 39.7563 13.452C39.7503 13.5511 39.75 13.6505 39.75 13.7499C39.75 16.6444 42.1053 18.9996 45 18.9996C45.004 18.9998 45.0083 19.0004 45.0117 18.9996C45.0128 18.9996 45.0139 18.9996 45.0154 18.9996C47.903 18.9913 50.25 16.6393 50.25 13.7499C50.25 13.6044 50.2201 13.1968 50.2201 13.1968ZM45 18.4163C44.035 18.4163 43.25 17.5801 43.25 16.5522C43.25 16.5172 43.2497 16.4818 43.2523 16.4385C43.2639 16.0051 43.3463 15.7091 43.4366 15.5123C43.6058 15.8758 43.9082 16.2098 44.3996 16.2098C44.5608 16.2098 44.6913 16.0794 44.6913 15.9182C44.6913 15.503 44.6998 15.0239 44.8032 14.5915C44.8952 14.2082 45.1151 13.8003 45.3937 13.4734C45.5176 13.8977 45.7591 14.2412 45.995 14.5764C46.3325 15.056 46.6814 15.5519 46.7426 16.3975C46.7463 16.4476 46.7501 16.4981 46.7501 16.5522C46.75 17.58 45.965 18.4163 45 18.4163Z" fill="white"/>
</g>
<circle cx="12" cy="12" r="12" fill="#2ECC71"/>
<path d="M15.5038 5C15.5038 5 14.3519 6.11753 13.1062 6.56808C3.88101 9.90485 7.77166 16.4073 7.89858 16.4287C7.89858 16.4287 8.41589 15.5279 9.11468 15.014C13.549 11.7542 14.4502 8.00198 14.4502 8.00198C14.4502 8.00198 13.4552 12.5171 9.51021 15.3266C8.63891 15.9467 8.04894 17.4738 7.7992 19C7.7992 19 8.41683 18.7505 8.68241 18.6829C8.78598 18.007 9.0025 17.3599 9.36858 16.7818C14.8821 17.4382 16.6879 12.9955 16.9238 11.4464C17.4806 7.7876 15.5038 5 15.5038 5Z" fill="white"/>
<defs>
<clipPath id="clip0_5927_57">
<rect width="14" height="14" fill="white" transform="translate(71 5)"/>
</clipPath>
<clipPath id="clip1_5927_57">
<rect width="14" height="14" fill="white" transform="translate(38 5)"/>
</clipPath>
</defs>
</svg>
