<svg width="313" height="25" viewBox="0 0 313 25" fill="none" xmlns="http://www.w3.org/2000/svg">
<path d="M265.117 19H263.273V11.6484C263.273 11.4036 263.276 11.1589 263.281 10.9141C263.286 10.6693 263.292 10.4297 263.297 10.1953C263.307 9.96094 263.32 9.73698 263.336 9.52344C263.227 9.64323 263.091 9.77344 262.93 9.91406C262.773 10.0547 262.607 10.2005 262.43 10.3516L261.117 11.3984L260.195 10.2344L263.586 7.57812H265.117V19ZM276.172 10.1875C276.172 10.7031 276.068 11.151 275.859 11.5312C275.651 11.9115 275.365 12.224 275 12.4688C274.641 12.7083 274.224 12.8802 273.75 12.9844V13.0391C274.661 13.1536 275.349 13.4401 275.812 13.8984C276.281 14.3568 276.516 14.9635 276.516 15.7188C276.516 16.3802 276.357 16.9714 276.039 17.4922C275.721 18.0078 275.234 18.4141 274.578 18.7109C273.922 19.0078 273.078 19.1562 272.047 19.1562C271.427 19.1562 270.852 19.1068 270.32 19.0078C269.794 18.9089 269.294 18.75 268.82 18.5312V16.8984C269.305 17.138 269.82 17.3229 270.367 17.4531C270.914 17.5833 271.432 17.6484 271.922 17.6484C272.875 17.6484 273.555 17.4714 273.961 17.1172C274.367 16.7578 274.57 16.263 274.57 15.6328C274.57 15.2266 274.464 14.8932 274.25 14.6328C274.042 14.3724 273.716 14.1771 273.273 14.0469C272.836 13.9167 272.271 13.8516 271.578 13.8516H270.57V12.375H271.586C272.247 12.375 272.779 12.2969 273.18 12.1406C273.581 11.9792 273.87 11.7578 274.047 11.4766C274.229 11.1953 274.32 10.8672 274.32 10.4922C274.32 10.0026 274.161 9.6224 273.844 9.35156C273.526 9.07552 273.055 8.9375 272.43 8.9375C272.044 8.9375 271.693 8.98177 271.375 9.07031C271.062 9.15885 270.773 9.27083 270.508 9.40625C270.242 9.54167 269.99 9.6875 269.75 9.84375L268.867 8.57031C269.299 8.2474 269.815 7.97396 270.414 7.75C271.013 7.52604 271.711 7.41406 272.508 7.41406C273.68 7.41406 274.583 7.66667 275.219 8.17188C275.854 8.67188 276.172 9.34375 276.172 10.1875ZM278.359 18.0312C278.359 17.6042 278.469 17.3047 278.688 17.1328C278.911 16.9557 279.182 16.8672 279.5 16.8672C279.818 16.8672 280.089 16.9557 280.312 17.1328C280.542 17.3047 280.656 17.6042 280.656 18.0312C280.656 18.4479 280.542 18.75 280.312 18.9375C280.089 19.1198 279.818 19.2109 279.5 19.2109C279.182 19.2109 278.911 19.1198 278.688 18.9375C278.469 18.75 278.359 18.4479 278.359 18.0312ZM290.141 12.4453C290.141 13.1224 290.091 13.7865 289.992 14.4375C289.898 15.0885 289.732 15.6979 289.492 16.2656C289.258 16.8333 288.932 17.3359 288.516 17.7734C288.104 18.2057 287.583 18.5443 286.953 18.7891C286.323 19.0339 285.562 19.1562 284.672 19.1562C284.448 19.1562 284.188 19.1432 283.891 19.1172C283.599 19.0964 283.359 19.0651 283.172 19.0234V17.4922C283.37 17.5495 283.591 17.5964 283.836 17.6328C284.086 17.6641 284.333 17.6797 284.578 17.6797C285.542 17.6797 286.292 17.5 286.828 17.1406C287.37 16.7812 287.753 16.2865 287.977 15.6562C288.206 15.026 288.336 14.3099 288.367 13.5078H288.273C288.122 13.7578 287.932 13.987 287.703 14.1953C287.474 14.3984 287.19 14.5625 286.852 14.6875C286.513 14.8073 286.102 14.8672 285.617 14.8672C284.961 14.8672 284.388 14.7292 283.898 14.4531C283.414 14.1771 283.036 13.776 282.766 13.25C282.5 12.7188 282.367 12.0807 282.367 11.3359C282.367 10.5286 282.521 9.83333 282.828 9.25C283.135 8.66667 283.57 8.21875 284.133 7.90625C284.695 7.58854 285.357 7.42969 286.117 7.42969C286.69 7.42969 287.219 7.53385 287.703 7.74219C288.193 7.94531 288.62 8.25781 288.984 8.67969C289.349 9.09635 289.633 9.61979 289.836 10.25C290.039 10.875 290.141 11.6068 290.141 12.4453ZM286.141 8.94531C285.562 8.94531 285.091 9.14062 284.727 9.53125C284.362 9.91667 284.18 10.5104 284.18 11.3125C284.18 11.9635 284.336 12.4792 284.648 12.8594C284.961 13.2396 285.44 13.4297 286.086 13.4297C286.534 13.4297 286.919 13.3385 287.242 13.1562C287.57 12.9688 287.823 12.7318 288 12.4453C288.182 12.1589 288.273 11.8672 288.273 11.5703C288.273 11.263 288.229 10.9557 288.141 10.6484C288.057 10.3411 287.927 10.0599 287.75 9.80469C287.573 9.54948 287.349 9.34375 287.078 9.1875C286.812 9.02604 286.5 8.94531 286.141 8.94531ZM298.438 12.5469C297.917 12.5469 297.456 12.4401 297.055 12.2266C296.659 12.0078 296.349 11.7057 296.125 11.3203C295.901 10.9349 295.789 10.4896 295.789 9.98438C295.789 9.48438 295.898 9.04167 296.117 8.65625C296.341 8.26562 296.651 7.96094 297.047 7.74219C297.448 7.52344 297.911 7.41406 298.438 7.41406C298.964 7.41406 299.424 7.52344 299.82 7.74219C300.216 7.96094 300.526 8.26302 300.75 8.64844C300.979 9.03385 301.094 9.47917 301.094 9.98438C301.094 10.4896 300.979 10.9349 300.75 11.3203C300.526 11.7057 300.216 12.0078 299.82 12.2266C299.424 12.4401 298.964 12.5469 298.438 12.5469ZM298.445 11.3594C298.872 11.3594 299.208 11.2344 299.453 10.9844C299.698 10.7344 299.82 10.401 299.82 9.98438C299.82 9.55208 299.695 9.21094 299.445 8.96094C299.195 8.71094 298.862 8.58594 298.445 8.58594C298.018 8.58594 297.68 8.71094 297.43 8.96094C297.185 9.21094 297.062 9.55208 297.062 9.98438C297.062 10.401 297.185 10.7344 297.43 10.9844C297.674 11.2344 298.013 11.3594 298.445 11.3594ZM308.242 9.00781C307.695 9.00781 307.206 9.10677 306.773 9.30469C306.346 9.5026 305.984 9.78906 305.688 10.1641C305.391 10.5339 305.164 10.9844 305.008 11.5156C304.852 12.0417 304.773 12.6354 304.773 13.2969C304.773 14.1823 304.898 14.9453 305.148 15.5859C305.398 16.2214 305.779 16.7109 306.289 17.0547C306.799 17.3932 307.445 17.5625 308.227 17.5625C308.711 17.5625 309.182 17.5156 309.641 17.4219C310.099 17.3281 310.573 17.2005 311.062 17.0391V18.6328C310.599 18.8151 310.13 18.9479 309.656 19.0312C309.182 19.1146 308.635 19.1562 308.016 19.1562C306.849 19.1562 305.88 18.9141 305.109 18.4297C304.344 17.9453 303.771 17.263 303.391 16.3828C303.016 15.5026 302.828 14.4714 302.828 13.2891C302.828 12.4245 302.948 11.6328 303.188 10.9141C303.427 10.1953 303.776 9.57552 304.234 9.05469C304.693 8.52865 305.258 8.125 305.93 7.84375C306.607 7.55729 307.38 7.41406 308.25 7.41406C308.823 7.41406 309.385 7.47917 309.938 7.60938C310.495 7.73438 311.01 7.91406 311.484 8.14844L310.828 9.69531C310.432 9.50781 310.018 9.34635 309.586 9.21094C309.154 9.07552 308.706 9.00781 308.242 9.00781Z" fill="#A5ADBB"/>
<path d="M103.82 7.57812C105.294 7.57812 106.37 7.88021 107.047 8.48438C107.724 9.08854 108.062 9.9349 108.062 11.0234C108.062 11.5182 107.984 11.9896 107.828 12.4375C107.677 12.8802 107.427 13.2734 107.078 13.6172C106.729 13.9557 106.268 14.224 105.695 14.4219C105.128 14.6198 104.427 14.7188 103.594 14.7188H102.375V19H100.5V7.57812H103.82ZM103.695 9.13281H102.375V13.1562H103.398C103.987 13.1562 104.487 13.0885 104.898 12.9531C105.31 12.8125 105.622 12.5911 105.836 12.2891C106.049 11.987 106.156 11.5885 106.156 11.0938C106.156 10.4323 105.956 9.9401 105.555 9.61719C105.159 9.29427 104.539 9.13281 103.695 9.13281ZM114.961 7.57812L110.703 19H108.984L113.242 7.57812H114.961ZM118.453 19H116.594V7.57812H123.047V9.15625H118.453V12.7188H122.75V14.2891H118.453V19ZM129.742 7.57812L125.484 19H123.766L128.023 7.57812H129.742ZM136.242 9.00781C135.695 9.00781 135.206 9.10677 134.773 9.30469C134.346 9.5026 133.984 9.78906 133.688 10.1641C133.391 10.5339 133.164 10.9844 133.008 11.5156C132.852 12.0417 132.773 12.6354 132.773 13.2969C132.773 14.1823 132.898 14.9453 133.148 15.5859C133.398 16.2214 133.779 16.7109 134.289 17.0547C134.799 17.3932 135.445 17.5625 136.227 17.5625C136.711 17.5625 137.182 17.5156 137.641 17.4219C138.099 17.3281 138.573 17.2005 139.062 17.0391V18.6328C138.599 18.8151 138.13 18.9479 137.656 19.0312C137.182 19.1146 136.635 19.1562 136.016 19.1562C134.849 19.1562 133.88 18.9141 133.109 18.4297C132.344 17.9453 131.771 17.263 131.391 16.3828C131.016 15.5026 130.828 14.4714 130.828 13.2891C130.828 12.4245 130.948 11.6328 131.188 10.9141C131.427 10.1953 131.776 9.57552 132.234 9.05469C132.693 8.52865 133.258 8.125 133.93 7.84375C134.607 7.55729 135.38 7.41406 136.25 7.41406C136.823 7.41406 137.385 7.47917 137.938 7.60938C138.495 7.73438 139.01 7.91406 139.484 8.14844L138.828 9.69531C138.432 9.50781 138.018 9.34635 137.586 9.21094C137.154 9.07552 136.706 9.00781 136.242 9.00781ZM141.062 18.0312C141.062 17.6042 141.172 17.3047 141.391 17.1328C141.615 16.9557 141.885 16.8672 142.203 16.8672C142.521 16.8672 142.792 16.9557 143.016 17.1328C143.245 17.3047 143.359 17.6042 143.359 18.0312C143.359 18.4479 143.245 18.75 143.016 18.9375C142.792 19.1198 142.521 19.2109 142.203 19.2109C141.885 19.2109 141.615 19.1198 141.391 18.9375C141.172 18.75 141.062 18.4479 141.062 18.0312ZM141.062 11.3438C141.062 10.9115 141.172 10.6068 141.391 10.4297C141.615 10.2526 141.885 10.1641 142.203 10.1641C142.521 10.1641 142.792 10.2526 143.016 10.4297C143.245 10.6068 143.359 10.9115 143.359 11.3438C143.359 11.7552 143.245 12.0547 143.016 12.2422C142.792 12.4245 142.521 12.5156 142.203 12.5156C141.885 12.5156 141.615 12.4245 141.391 12.2422C141.172 12.0547 141.062 11.7552 141.062 11.3438ZM149.297 14.1328C149.297 13.4609 149.344 12.7995 149.438 12.1484C149.536 11.4974 149.703 10.888 149.938 10.3203C150.172 9.7526 150.495 9.2526 150.906 8.82031C151.323 8.38802 151.846 8.04948 152.477 7.80469C153.107 7.55469 153.865 7.42969 154.75 7.42969C154.979 7.42969 155.237 7.4401 155.523 7.46094C155.81 7.48177 156.047 7.51562 156.234 7.5625V9.08594C156.031 9.02865 155.807 8.98438 155.562 8.95312C155.323 8.92188 155.083 8.90625 154.844 8.90625C153.885 8.90625 153.138 9.08854 152.602 9.45312C152.065 9.8125 151.682 10.3073 151.453 10.9375C151.224 11.5625 151.091 12.2786 151.055 13.0859H151.148C151.305 12.8255 151.5 12.5938 151.734 12.3906C151.969 12.1875 152.255 12.026 152.594 11.9062C152.932 11.7812 153.326 11.7188 153.773 11.7188C154.44 11.7188 155.021 11.8594 155.516 12.1406C156.01 12.4167 156.391 12.8177 156.656 13.3438C156.927 13.8698 157.062 14.5078 157.062 15.2578C157.062 16.0651 156.909 16.7604 156.602 17.3438C156.299 17.9271 155.867 18.375 155.305 18.6875C154.747 19 154.083 19.1562 153.312 19.1562C152.745 19.1562 152.216 19.0521 151.727 18.8438C151.242 18.6354 150.818 18.3229 150.453 17.9062C150.089 17.4896 149.805 16.9688 149.602 16.3438C149.398 15.7135 149.297 14.9766 149.297 14.1328ZM153.281 17.6406C153.875 17.6406 154.352 17.4479 154.711 17.0625C155.076 16.6719 155.258 16.0755 155.258 15.2734C155.258 14.6224 155.096 14.1068 154.773 13.7266C154.456 13.3464 153.977 13.1562 153.336 13.1562C152.898 13.1562 152.516 13.25 152.188 13.4375C151.859 13.625 151.604 13.862 151.422 14.1484C151.245 14.4349 151.156 14.7266 151.156 15.0234C151.156 15.3255 151.201 15.6302 151.289 15.9375C151.378 16.2448 151.51 16.5286 151.688 16.7891C151.865 17.0443 152.086 17.25 152.352 17.4062C152.617 17.5625 152.927 17.6406 153.281 17.6406ZM163.836 7.57812L159.578 19H157.859L162.117 7.57812H163.836ZM170.086 19H168.242V11.6484C168.242 11.4036 168.245 11.1589 168.25 10.9141C168.255 10.6693 168.26 10.4297 168.266 10.1953C168.276 9.96094 168.289 9.73698 168.305 9.52344C168.195 9.64323 168.06 9.77344 167.898 9.91406C167.742 10.0547 167.576 10.2005 167.398 10.3516L166.086 11.3984L165.164 10.2344L168.555 7.57812H170.086V19ZM181.992 16.4922H180.445V19H178.633V16.4922H173.438V15.1016L178.656 7.54688H180.445V14.9688H181.992V16.4922ZM178.633 14.9688V12.1328C178.633 11.8984 178.635 11.6615 178.641 11.4219C178.651 11.1771 178.661 10.9427 178.672 10.7188C178.682 10.4948 178.693 10.2891 178.703 10.1016C178.714 9.90885 178.721 9.75 178.727 9.625H178.664C178.565 9.83333 178.456 10.0469 178.336 10.2656C178.216 10.4792 178.089 10.6875 177.953 10.8906L175.141 14.9688H178.633ZM188.398 7.57812L184.141 19H182.422L186.68 7.57812H188.398ZM197.398 16.4922H195.852V19H194.039V16.4922H188.844V15.1016L194.062 7.54688H195.852V14.9688H197.398V16.4922ZM194.039 14.9688V12.1328C194.039 11.8984 194.042 11.6615 194.047 11.4219C194.057 11.1771 194.068 10.9427 194.078 10.7188C194.089 10.4948 194.099 10.2891 194.109 10.1016C194.12 9.90885 194.128 9.75 194.133 9.625H194.07C193.971 9.83333 193.862 10.0469 193.742 10.2656C193.622 10.4792 193.495 10.6875 193.359 10.8906L190.547 14.9688H194.039ZM206.125 12.4453C206.125 13.1224 206.076 13.7865 205.977 14.4375C205.883 15.0885 205.716 15.6979 205.477 16.2656C205.242 16.8333 204.917 17.3359 204.5 17.7734C204.089 18.2057 203.568 18.5443 202.938 18.7891C202.307 19.0339 201.547 19.1562 200.656 19.1562C200.432 19.1562 200.172 19.1432 199.875 19.1172C199.583 19.0964 199.344 19.0651 199.156 19.0234V17.4922C199.354 17.5495 199.576 17.5964 199.82 17.6328C200.07 17.6641 200.318 17.6797 200.562 17.6797C201.526 17.6797 202.276 17.5 202.812 17.1406C203.354 16.7812 203.737 16.2865 203.961 15.6562C204.19 15.026 204.32 14.3099 204.352 13.5078H204.258C204.107 13.7578 203.917 13.987 203.688 14.1953C203.458 14.3984 203.174 14.5625 202.836 14.6875C202.497 14.8073 202.086 14.8672 201.602 14.8672C200.945 14.8672 200.372 14.7292 199.883 14.4531C199.398 14.1771 199.021 13.776 198.75 13.25C198.484 12.7188 198.352 12.0807 198.352 11.3359C198.352 10.5286 198.505 9.83333 198.812 9.25C199.12 8.66667 199.555 8.21875 200.117 7.90625C200.68 7.58854 201.341 7.42969 202.102 7.42969C202.674 7.42969 203.203 7.53385 203.688 7.74219C204.177 7.94531 204.604 8.25781 204.969 8.67969C205.333 9.09635 205.617 9.61979 205.82 10.25C206.023 10.875 206.125 11.6068 206.125 12.4453ZM202.125 8.94531C201.547 8.94531 201.076 9.14062 200.711 9.53125C200.346 9.91667 200.164 10.5104 200.164 11.3125C200.164 11.9635 200.32 12.4792 200.633 12.8594C200.945 13.2396 201.424 13.4297 202.07 13.4297C202.518 13.4297 202.904 13.3385 203.227 13.1562C203.555 12.9688 203.807 12.7318 203.984 12.4453C204.167 12.1589 204.258 11.8672 204.258 11.5703C204.258 11.263 204.214 10.9557 204.125 10.6484C204.042 10.3411 203.911 10.0599 203.734 9.80469C203.557 9.54948 203.333 9.34375 203.062 9.1875C202.797 9.02604 202.484 8.94531 202.125 8.94531Z" fill="#A5ADBB"/>
<path d="M8.01562 10.1875C8.01562 10.7031 7.91146 11.151 7.70312 11.5312C7.49479 11.9115 7.20833 12.224 6.84375 12.4688C6.48438 12.7083 6.06771 12.8802 5.59375 12.9844V13.0391C6.50521 13.1536 7.19271 13.4401 7.65625 13.8984C8.125 14.3568 8.35938 14.9635 8.35938 15.7188C8.35938 16.3802 8.20052 16.9714 7.88281 17.4922C7.5651 18.0078 7.07812 18.4141 6.42188 18.7109C5.76562 19.0078 4.92188 19.1562 3.89062 19.1562C3.27083 19.1562 2.69531 19.1068 2.16406 19.0078C1.63802 18.9089 1.13802 18.75 0.664062 18.5312V16.8984C1.14844 17.138 1.66406 17.3229 2.21094 17.4531C2.75781 17.5833 3.27604 17.6484 3.76562 17.6484C4.71875 17.6484 5.39844 17.4714 5.80469 17.1172C6.21094 16.7578 6.41406 16.263 6.41406 15.6328C6.41406 15.2266 6.30729 14.8932 6.09375 14.6328C5.88542 14.3724 5.5599 14.1771 5.11719 14.0469C4.67969 13.9167 4.11458 13.8516 3.42188 13.8516H2.41406V12.375H3.42969C4.09115 12.375 4.6224 12.2969 5.02344 12.1406C5.42448 11.9792 5.71354 11.7578 5.89062 11.4766C6.07292 11.1953 6.16406 10.8672 6.16406 10.4922C6.16406 10.0026 6.00521 9.6224 5.6875 9.35156C5.36979 9.07552 4.89844 8.9375 4.27344 8.9375C3.88802 8.9375 3.53646 8.98177 3.21875 9.07031C2.90625 9.15885 2.61719 9.27083 2.35156 9.40625C2.08594 9.54167 1.83333 9.6875 1.59375 9.84375L0.710938 8.57031C1.14323 8.2474 1.65885 7.97396 2.25781 7.75C2.85677 7.52604 3.55469 7.41406 4.35156 7.41406C5.52344 7.41406 6.42708 7.66667 7.0625 8.17188C7.69792 8.67188 8.01562 9.34375 8.01562 10.1875ZM18.0234 16.4922H16.4766V19H14.6641V16.4922H9.46875V15.1016L14.6875 7.54688H16.4766V14.9688H18.0234V16.4922ZM14.6641 14.9688V12.1328C14.6641 11.8984 14.6667 11.6615 14.6719 11.4219C14.6823 11.1771 14.6927 10.9427 14.7031 10.7188C14.7135 10.4948 14.724 10.2891 14.7344 10.1016C14.7448 9.90885 14.7526 9.75 14.7578 9.625H14.6953C14.5964 9.83333 14.487 10.0469 14.3672 10.2656C14.2474 10.4792 14.1198 10.6875 13.9844 10.8906L11.1719 14.9688H14.6641ZM19.0469 14.1328C19.0469 13.4609 19.0938 12.7995 19.1875 12.1484C19.2865 11.4974 19.4531 10.888 19.6875 10.3203C19.9219 9.7526 20.2448 9.2526 20.6562 8.82031C21.0729 8.38802 21.5964 8.04948 22.2266 7.80469C22.8568 7.55469 23.6146 7.42969 24.5 7.42969C24.7292 7.42969 24.987 7.4401 25.2734 7.46094C25.5599 7.48177 25.7969 7.51562 25.9844 7.5625V9.08594C25.7812 9.02865 25.5573 8.98438 25.3125 8.95312C25.0729 8.92188 24.8333 8.90625 24.5938 8.90625C23.6354 8.90625 22.888 9.08854 22.3516 9.45312C21.8151 9.8125 21.4323 10.3073 21.2031 10.9375C20.974 11.5625 20.8411 12.2786 20.8047 13.0859H20.8984C21.0547 12.8255 21.25 12.5938 21.4844 12.3906C21.7188 12.1875 22.0052 12.026 22.3438 11.9062C22.6823 11.7812 23.0755 11.7188 23.5234 11.7188C24.1901 11.7188 24.7708 11.8594 25.2656 12.1406C25.7604 12.4167 26.1406 12.8177 26.4062 13.3438C26.6771 13.8698 26.8125 14.5078 26.8125 15.2578C26.8125 16.0651 26.6589 16.7604 26.3516 17.3438C26.0495 17.9271 25.6172 18.375 25.0547 18.6875C24.4974 19 23.8333 19.1562 23.0625 19.1562C22.4948 19.1562 21.9661 19.0521 21.4766 18.8438C20.9922 18.6354 20.5677 18.3229 20.2031 17.9062C19.8385 17.4896 19.5547 16.9688 19.3516 16.3438C19.1484 15.7135 19.0469 14.9766 19.0469 14.1328ZM23.0312 17.6406C23.625 17.6406 24.1016 17.4479 24.4609 17.0625C24.8255 16.6719 25.0078 16.0755 25.0078 15.2734C25.0078 14.6224 24.8464 14.1068 24.5234 13.7266C24.2057 13.3464 23.7266 13.1562 23.0859 13.1562C22.6484 13.1562 22.2656 13.25 21.9375 13.4375C21.6094 13.625 21.3542 13.862 21.1719 14.1484C20.9948 14.4349 20.9062 14.7266 20.9062 15.0234C20.9062 15.3255 20.9505 15.6302 21.0391 15.9375C21.1276 16.2448 21.2604 16.5286 21.4375 16.7891C21.6146 17.0443 21.8359 17.25 22.1016 17.4062C22.3672 17.5625 22.6771 17.6406 23.0312 17.6406ZM37.9922 9.00781C37.4453 9.00781 36.9557 9.10677 36.5234 9.30469C36.0964 9.5026 35.7344 9.78906 35.4375 10.1641C35.1406 10.5339 34.9141 10.9844 34.7578 11.5156C34.6016 12.0417 34.5234 12.6354 34.5234 13.2969C34.5234 14.1823 34.6484 14.9453 34.8984 15.5859C35.1484 16.2214 35.5286 16.7109 36.0391 17.0547C36.5495 17.3932 37.1953 17.5625 37.9766 17.5625C38.4609 17.5625 38.9323 17.5156 39.3906 17.4219C39.849 17.3281 40.3229 17.2005 40.8125 17.0391V18.6328C40.349 18.8151 39.8802 18.9479 39.4062 19.0312C38.9323 19.1146 38.3854 19.1562 37.7656 19.1562C36.599 19.1562 35.6302 18.9141 34.8594 18.4297C34.0938 17.9453 33.5208 17.263 33.1406 16.3828C32.7656 15.5026 32.5781 14.4714 32.5781 13.2891C32.5781 12.4245 32.6979 11.6328 32.9375 10.9141C33.1771 10.1953 33.526 9.57552 33.9844 9.05469C34.4427 8.52865 35.0078 8.125 35.6797 7.84375C36.3568 7.55729 37.1302 7.41406 38 7.41406C38.5729 7.41406 39.1354 7.47917 39.6875 7.60938C40.2448 7.73438 40.7604 7.91406 41.2344 8.14844L40.5781 9.69531C40.1823 9.50781 39.7682 9.34635 39.3359 9.21094C38.9036 9.07552 38.4557 9.00781 37.9922 9.00781ZM46.4688 10.1875C47.5625 10.1875 48.388 10.4297 48.9453 10.9141C49.5078 11.3984 49.7891 12.1536 49.7891 13.1797V19H48.4844L48.1328 17.7734H48.0703C47.8255 18.0859 47.5729 18.3438 47.3125 18.5469C47.0521 18.75 46.75 18.901 46.4062 19C46.0677 19.1042 45.6536 19.1562 45.1641 19.1562C44.6484 19.1562 44.1875 19.0625 43.7812 18.875C43.375 18.6823 43.0547 18.3906 42.8203 18C42.5859 17.6094 42.4688 17.1146 42.4688 16.5156C42.4688 15.625 42.7995 14.9557 43.4609 14.5078C44.1276 14.0599 45.1328 13.8125 46.4766 13.7656L47.9766 13.7109V13.2578C47.9766 12.6589 47.8359 12.2318 47.5547 11.9766C47.2786 11.7214 46.888 11.5938 46.3828 11.5938C45.9505 11.5938 45.5312 11.6562 45.125 11.7812C44.7188 11.9062 44.3229 12.0599 43.9375 12.2422L43.3438 10.9453C43.7656 10.7214 44.2448 10.5391 44.7812 10.3984C45.3229 10.2578 45.8854 10.1875 46.4688 10.1875ZM47.9688 14.8672L46.8516 14.9062C45.9349 14.9375 45.2917 15.0938 44.9219 15.375C44.5521 15.6562 44.3672 16.0417 44.3672 16.5312C44.3672 16.9583 44.4948 17.2708 44.75 17.4688C45.0052 17.6615 45.3411 17.7578 45.7578 17.7578C46.3932 17.7578 46.9193 17.5781 47.3359 17.2188C47.7578 16.8542 47.9688 16.3203 47.9688 15.6172V14.8672ZM54.2031 19H52.3594V6.84375H54.2031V19Z" fill="#A5ADBB"/>
</svg>
