<svg width="312" height="25" viewBox="0 0 312 25" fill="none" xmlns="http://www.w3.org/2000/svg">
<path d="M263.578 11.8672C264.729 11.8672 265.641 12.1719 266.312 12.7812C266.984 13.3906 267.32 14.2214 267.32 15.2734C267.32 16.4922 266.938 17.4453 266.172 18.1328C265.411 18.8151 264.328 19.1562 262.922 19.1562C261.646 19.1562 260.643 18.9505 259.914 18.5391V16.875C260.336 17.1146 260.82 17.2995 261.367 17.4297C261.914 17.5599 262.422 17.625 262.891 17.625C263.719 17.625 264.349 17.4401 264.781 17.0703C265.214 16.7005 265.43 16.1589 265.43 15.4453C265.43 14.0807 264.56 13.3984 262.82 13.3984C262.576 13.3984 262.273 13.4245 261.914 13.4766C261.555 13.5234 261.24 13.5781 260.969 13.6406L260.148 13.1562L260.586 7.57812H266.523V9.21094H262.203L261.945 12.0391C262.128 12.0078 262.349 11.9714 262.609 11.9297C262.875 11.888 263.198 11.8672 263.578 11.8672ZM276.156 10.2031C276.156 10.9271 275.945 11.5312 275.523 12.0156C275.102 12.4948 274.508 12.8177 273.742 12.9844V13.0469C274.659 13.1615 275.346 13.4479 275.805 13.9062C276.263 14.3594 276.492 14.9635 276.492 15.7188C276.492 16.8177 276.104 17.6667 275.328 18.2656C274.552 18.8594 273.448 19.1562 272.016 19.1562C270.75 19.1562 269.682 18.9505 268.812 18.5391V16.9062C269.297 17.1458 269.81 17.3307 270.352 17.4609C270.893 17.5911 271.414 17.6562 271.914 17.6562C272.799 17.6562 273.461 17.4922 273.898 17.1641C274.336 16.8359 274.555 16.3281 274.555 15.6406C274.555 15.0312 274.312 14.5833 273.828 14.2969C273.344 14.0104 272.583 13.8672 271.547 13.8672H270.555V12.375H271.562C273.385 12.375 274.297 11.7448 274.297 10.4844C274.297 9.99479 274.138 9.61719 273.82 9.35156C273.503 9.08594 273.034 8.95312 272.414 8.95312C271.982 8.95312 271.565 9.01562 271.164 9.14062C270.763 9.26042 270.289 9.4974 269.742 9.85156L268.844 8.57031C269.891 7.79948 271.107 7.41406 272.492 7.41406C273.643 7.41406 274.542 7.66146 275.188 8.15625C275.833 8.65104 276.156 9.33333 276.156 10.2031ZM278.32 18.0234C278.32 17.6432 278.419 17.3516 278.617 17.1484C278.815 16.9453 279.102 16.8438 279.477 16.8438C279.857 16.8438 280.146 16.9505 280.344 17.1641C280.542 17.3724 280.641 17.6589 280.641 18.0234C280.641 18.3932 280.539 18.6875 280.336 18.9062C280.138 19.1198 279.852 19.2266 279.477 19.2266C279.102 19.2266 278.815 19.1198 278.617 18.9062C278.419 18.6927 278.32 18.3984 278.32 18.0234ZM286.25 7.42969C287.333 7.42969 288.19 7.67969 288.82 8.17969C289.451 8.67448 289.766 9.33854 289.766 10.1719C289.766 11.3438 289.062 12.276 287.656 12.9688C288.552 13.4167 289.188 13.888 289.562 14.3828C289.943 14.8776 290.133 15.4297 290.133 16.0391C290.133 16.9818 289.786 17.737 289.094 18.3047C288.401 18.8724 287.464 19.1562 286.281 19.1562C285.042 19.1562 284.081 18.8906 283.398 18.3594C282.716 17.8281 282.375 17.0755 282.375 16.1016C282.375 15.4661 282.552 14.8958 282.906 14.3906C283.266 13.8802 283.852 13.4271 284.664 13.0312C283.966 12.6146 283.469 12.1745 283.172 11.7109C282.875 11.2474 282.727 10.7266 282.727 10.1484C282.727 9.32031 283.052 8.66146 283.703 8.17188C284.354 7.67708 285.203 7.42969 286.25 7.42969ZM284.133 16.0391C284.133 16.5807 284.323 17.0026 284.703 17.3047C285.083 17.6016 285.599 17.75 286.25 17.75C286.922 17.75 287.443 17.5964 287.812 17.2891C288.188 16.9766 288.375 16.5547 288.375 16.0234C288.375 15.6016 288.203 15.2161 287.859 14.8672C287.516 14.5182 286.995 14.1953 286.297 13.8984L286.07 13.7969C285.383 14.099 284.888 14.4323 284.586 14.7969C284.284 15.1562 284.133 15.5703 284.133 16.0391ZM286.234 8.84375C285.714 8.84375 285.294 8.97396 284.977 9.23438C284.659 9.48958 284.5 9.83854 284.5 10.2812C284.5 10.5521 284.557 10.7943 284.672 11.0078C284.786 11.2214 284.953 11.4167 285.172 11.5938C285.391 11.7656 285.76 11.974 286.281 12.2188C286.906 11.9427 287.346 11.6536 287.602 11.3516C287.862 11.0443 287.992 10.6875 287.992 10.2812C287.992 9.83854 287.831 9.48958 287.508 9.23438C287.19 8.97396 286.766 8.84375 286.234 8.84375ZM295.836 9.99219C295.836 9.28906 296.083 8.6849 296.578 8.17969C297.073 7.66927 297.682 7.41406 298.406 7.41406C299.125 7.41406 299.732 7.66406 300.227 8.16406C300.721 8.66406 300.969 9.27344 300.969 9.99219C300.969 10.7161 300.719 11.3255 300.219 11.8203C299.719 12.3099 299.115 12.5547 298.406 12.5547C297.948 12.5547 297.518 12.4427 297.117 12.2188C296.721 11.9896 296.409 11.6771 296.18 11.2812C295.951 10.8854 295.836 10.4557 295.836 9.99219ZM297.031 9.99219C297.031 10.3568 297.164 10.6745 297.43 10.9453C297.695 11.2161 298.021 11.3516 298.406 11.3516C298.792 11.3516 299.117 11.2188 299.383 10.9531C299.648 10.6823 299.781 10.362 299.781 9.99219C299.781 9.59635 299.646 9.26562 299.375 9C299.104 8.73438 298.781 8.60156 298.406 8.60156C298.031 8.60156 297.708 8.73698 297.438 9.00781C297.167 9.27865 297.031 9.60677 297.031 9.99219ZM308.211 9.01562C307.138 9.01562 306.294 9.39583 305.68 10.1562C305.065 10.9167 304.758 11.9661 304.758 13.3047C304.758 14.7057 305.052 15.7656 305.641 16.4844C306.234 17.2031 307.091 17.5625 308.211 17.5625C308.695 17.5625 309.164 17.5156 309.617 17.4219C310.07 17.3229 310.542 17.1979 311.031 17.0469V18.6484C310.135 18.987 309.12 19.1562 307.984 19.1562C306.312 19.1562 305.029 18.651 304.133 17.6406C303.237 16.625 302.789 15.1745 302.789 13.2891C302.789 12.1016 303.005 11.0625 303.438 10.1719C303.875 9.28125 304.505 8.59896 305.328 8.125C306.151 7.65104 307.117 7.41406 308.227 7.41406C309.393 7.41406 310.471 7.65885 311.461 8.14844L310.789 9.70312C310.404 9.52083 309.995 9.36198 309.562 9.22656C309.135 9.08594 308.685 9.01562 308.211 9.01562Z" fill="#A5ADBB"/>
<path d="M108.07 11.0312C108.07 12.224 107.68 13.138 106.898 13.7734C106.117 14.4089 105.005 14.7266 103.562 14.7266H102.375V19H100.508V7.57812H103.797C105.224 7.57812 106.292 7.86979 107 8.45312C107.714 9.03646 108.07 9.89583 108.07 11.0312ZM102.375 13.1562H103.367C104.326 13.1562 105.029 12.9896 105.477 12.6562C105.924 12.3229 106.148 11.8021 106.148 11.0938C106.148 10.4375 105.948 9.94792 105.547 9.625C105.146 9.30208 104.521 9.14062 103.672 9.14062H102.375V13.1562ZM114.953 7.57812L110.703 19H108.969L113.227 7.57812H114.953ZM118.453 19H116.602V7.57812H123.047V9.15625H118.453V12.7266H122.758V14.3125H118.453V19ZM129.719 7.57812L125.469 19H123.734L127.992 7.57812H129.719ZM136.227 9.01562C135.154 9.01562 134.31 9.39583 133.695 10.1562C133.081 10.9167 132.773 11.9661 132.773 13.3047C132.773 14.7057 133.068 15.7656 133.656 16.4844C134.25 17.2031 135.107 17.5625 136.227 17.5625C136.711 17.5625 137.18 17.5156 137.633 17.4219C138.086 17.3229 138.557 17.1979 139.047 17.0469V18.6484C138.151 18.987 137.135 19.1562 136 19.1562C134.328 19.1562 133.044 18.651 132.148 17.6406C131.253 16.625 130.805 15.1745 130.805 13.2891C130.805 12.1016 131.021 11.0625 131.453 10.1719C131.891 9.28125 132.521 8.59896 133.344 8.125C134.167 7.65104 135.133 7.41406 136.242 7.41406C137.409 7.41406 138.487 7.65885 139.477 8.14844L138.805 9.70312C138.419 9.52083 138.01 9.36198 137.578 9.22656C137.151 9.08594 136.701 9.01562 136.227 9.01562ZM141.039 18.0234C141.039 17.6432 141.138 17.3516 141.336 17.1484C141.534 16.9453 141.82 16.8438 142.195 16.8438C142.576 16.8438 142.865 16.9505 143.062 17.1641C143.26 17.3724 143.359 17.6589 143.359 18.0234C143.359 18.3932 143.258 18.6875 143.055 18.9062C142.857 19.1198 142.57 19.2266 142.195 19.2266C141.82 19.2266 141.534 19.1198 141.336 18.9062C141.138 18.6927 141.039 18.3984 141.039 18.0234ZM141.039 11.3516C141.039 10.5651 141.424 10.1719 142.195 10.1719C142.586 10.1719 142.878 10.276 143.07 10.4844C143.263 10.6927 143.359 10.9818 143.359 11.3516C143.359 11.7214 143.258 12.0156 143.055 12.2344C142.857 12.4479 142.57 12.5547 142.195 12.5547C141.82 12.5547 141.534 12.4479 141.336 12.2344C141.138 12.0208 141.039 11.7266 141.039 11.3516ZM154.656 19H152.82V11.625C152.82 10.7448 152.841 10.0469 152.883 9.53125C152.763 9.65625 152.615 9.79427 152.438 9.94531C152.266 10.0964 151.682 10.5755 150.688 11.3828L149.766 10.2188L153.125 7.57812H154.656V19ZM166.148 19H158.406V17.6094L161.352 14.6484C162.221 13.7578 162.797 13.1276 163.078 12.7578C163.365 12.3828 163.573 12.0312 163.703 11.7031C163.833 11.375 163.898 11.0234 163.898 10.6484C163.898 10.1328 163.742 9.72656 163.43 9.42969C163.122 9.13281 162.695 8.98438 162.148 8.98438C161.711 8.98438 161.286 9.0651 160.875 9.22656C160.469 9.38802 159.997 9.67969 159.461 10.1016L158.469 8.89062C159.104 8.35417 159.721 7.97396 160.32 7.75C160.919 7.52604 161.557 7.41406 162.234 7.41406C163.297 7.41406 164.148 7.69271 164.789 8.25C165.43 8.80208 165.75 9.54688 165.75 10.4844C165.75 11 165.656 11.4896 165.469 11.9531C165.286 12.4167 165.003 12.8958 164.617 13.3906C164.237 13.8802 163.602 14.5443 162.711 15.3828L160.727 17.3047V17.3828H166.148V19ZM172.953 7.57812L168.703 19H166.969L171.227 7.57812H172.953ZM179.188 19H177.352V11.625C177.352 10.7448 177.372 10.0469 177.414 9.53125C177.294 9.65625 177.146 9.79427 176.969 9.94531C176.797 10.0964 176.214 10.5755 175.219 11.3828L174.297 10.2188L177.656 7.57812H179.188V19ZM190.68 13.2891C190.68 15.2734 190.359 16.7474 189.719 17.7109C189.083 18.6745 188.109 19.1562 186.797 19.1562C185.526 19.1562 184.562 18.6589 183.906 17.6641C183.25 16.6693 182.922 15.2109 182.922 13.2891C182.922 11.2734 183.24 9.78906 183.875 8.83594C184.516 7.8776 185.49 7.39844 186.797 7.39844C188.073 7.39844 189.039 7.89844 189.695 8.89844C190.352 9.89844 190.68 11.362 190.68 13.2891ZM184.781 13.2891C184.781 14.8464 184.94 15.9583 185.258 16.625C185.581 17.2917 186.094 17.625 186.797 17.625C187.5 17.625 188.013 17.2865 188.336 16.6094C188.664 15.9323 188.828 14.8255 188.828 13.2891C188.828 11.7578 188.664 10.651 188.336 9.96875C188.013 9.28125 187.5 8.9375 186.797 8.9375C186.094 8.9375 185.581 9.27344 185.258 9.94531C184.94 10.6172 184.781 11.7318 184.781 13.2891ZM197.484 7.57812L193.234 19H191.5L195.758 7.57812H197.484ZM205.641 10.2031C205.641 10.9271 205.43 11.5312 205.008 12.0156C204.586 12.4948 203.992 12.8177 203.227 12.9844V13.0469C204.143 13.1615 204.831 13.4479 205.289 13.9062C205.747 14.3594 205.977 14.9635 205.977 15.7188C205.977 16.8177 205.589 17.6667 204.812 18.2656C204.036 18.8594 202.932 19.1562 201.5 19.1562C200.234 19.1562 199.167 18.9505 198.297 18.5391V16.9062C198.781 17.1458 199.294 17.3307 199.836 17.4609C200.378 17.5911 200.898 17.6562 201.398 17.6562C202.284 17.6562 202.945 17.4922 203.383 17.1641C203.82 16.8359 204.039 16.3281 204.039 15.6406C204.039 15.0312 203.797 14.5833 203.312 14.2969C202.828 14.0104 202.068 13.8672 201.031 13.8672H200.039V12.375H201.047C202.87 12.375 203.781 11.7448 203.781 10.4844C203.781 9.99479 203.622 9.61719 203.305 9.35156C202.987 9.08594 202.518 8.95312 201.898 8.95312C201.466 8.95312 201.049 9.01562 200.648 9.14062C200.247 9.26042 199.773 9.4974 199.227 9.85156L198.328 8.57031C199.375 7.79948 200.591 7.41406 201.977 7.41406C203.128 7.41406 204.026 7.66146 204.672 8.15625C205.318 8.65104 205.641 9.33333 205.641 10.2031ZM212.859 19H211.023V11.625C211.023 10.7448 211.044 10.0469 211.086 9.53125C210.966 9.65625 210.818 9.79427 210.641 9.94531C210.469 10.0964 209.885 10.5755 208.891 11.3828L207.969 10.2188L211.328 7.57812H212.859V19Z" fill="#A5ADBB"/>
<path d="M8.44531 19H0.703125V17.6094L3.64844 14.6484C4.51823 13.7578 5.09375 13.1276 5.375 12.7578C5.66146 12.3828 5.86979 12.0312 6 11.7031C6.13021 11.375 6.19531 11.0234 6.19531 10.6484C6.19531 10.1328 6.03906 9.72656 5.72656 9.42969C5.41927 9.13281 4.99219 8.98438 4.44531 8.98438C4.00781 8.98438 3.58333 9.0651 3.17188 9.22656C2.76562 9.38802 2.29427 9.67969 1.75781 10.1016L0.765625 8.89062C1.40104 8.35417 2.01823 7.97396 2.61719 7.75C3.21615 7.52604 3.85417 7.41406 4.53125 7.41406C5.59375 7.41406 6.44531 7.69271 7.08594 8.25C7.72656 8.80208 8.04688 9.54688 8.04688 10.4844C8.04688 11 7.95312 11.4896 7.76562 11.9531C7.58333 12.4167 7.29948 12.8958 6.91406 13.3906C6.53385 13.8802 5.89844 14.5443 5.00781 15.3828L3.02344 17.3047V17.3828H8.44531V19ZM9.875 14.1328C9.875 9.66406 11.6953 7.42969 15.3359 7.42969C15.9089 7.42969 16.3932 7.47396 16.7891 7.5625V9.09375C16.3932 8.97917 15.9349 8.92188 15.4141 8.92188C14.1901 8.92188 13.2708 9.25 12.6562 9.90625C12.0417 10.5625 11.7083 11.6146 11.6562 13.0625H11.75C11.9948 12.6406 12.3385 12.3151 12.7812 12.0859C13.224 11.8516 13.7448 11.7344 14.3438 11.7344C15.3802 11.7344 16.1875 12.0521 16.7656 12.6875C17.3438 13.3229 17.6328 14.1849 17.6328 15.2734C17.6328 16.4714 17.2969 17.4193 16.625 18.1172C15.9583 18.8099 15.0469 19.1562 13.8906 19.1562C13.0729 19.1562 12.362 18.9609 11.7578 18.5703C11.1536 18.1745 10.6875 17.6016 10.3594 16.8516C10.0365 16.0964 9.875 15.1901 9.875 14.1328ZM13.8594 17.6406C14.4896 17.6406 14.974 17.4375 15.3125 17.0312C15.6562 16.625 15.8281 16.0443 15.8281 15.2891C15.8281 14.6328 15.6667 14.1172 15.3438 13.7422C15.026 13.3672 14.5469 13.1797 13.9062 13.1797C13.5104 13.1797 13.1458 13.2656 12.8125 13.4375C12.4792 13.6042 12.2161 13.8359 12.0234 14.1328C11.8307 14.4245 11.7344 14.724 11.7344 15.0312C11.7344 15.7656 11.9323 16.3854 12.3281 16.8906C12.7292 17.3906 13.2396 17.6406 13.8594 17.6406ZM22.8594 11.8672C24.0104 11.8672 24.9219 12.1719 25.5938 12.7812C26.2656 13.3906 26.6016 14.2214 26.6016 15.2734C26.6016 16.4922 26.2188 17.4453 25.4531 18.1328C24.6927 18.8151 23.6094 19.1562 22.2031 19.1562C20.9271 19.1562 19.9245 18.9505 19.1953 18.5391V16.875C19.6172 17.1146 20.1016 17.2995 20.6484 17.4297C21.1953 17.5599 21.7031 17.625 22.1719 17.625C23 17.625 23.6302 17.4401 24.0625 17.0703C24.4948 16.7005 24.7109 16.1589 24.7109 15.4453C24.7109 14.0807 23.8411 13.3984 22.1016 13.3984C21.8568 13.3984 21.5547 13.4245 21.1953 13.4766C20.8359 13.5234 20.5208 13.5781 20.25 13.6406L19.4297 13.1562L19.8672 7.57812H25.8047V9.21094H21.4844L21.2266 12.0391C21.4089 12.0078 21.6302 11.9714 21.8906 11.9297C22.1562 11.888 22.4792 11.8672 22.8594 11.8672ZM37.9453 9.01562C36.8724 9.01562 36.0286 9.39583 35.4141 10.1562C34.7995 10.9167 34.4922 11.9661 34.4922 13.3047C34.4922 14.7057 34.7865 15.7656 35.375 16.4844C35.9688 17.2031 36.8255 17.5625 37.9453 17.5625C38.4297 17.5625 38.8984 17.5156 39.3516 17.4219C39.8047 17.3229 40.276 17.1979 40.7656 17.0469V18.6484C39.8698 18.987 38.8542 19.1562 37.7188 19.1562C36.0469 19.1562 34.763 18.651 33.8672 17.6406C32.9714 16.625 32.5234 15.1745 32.5234 13.2891C32.5234 12.1016 32.7396 11.0625 33.1719 10.1719C33.6094 9.28125 34.2396 8.59896 35.0625 8.125C35.8854 7.65104 36.8516 7.41406 37.9609 7.41406C39.1276 7.41406 40.2057 7.65885 41.1953 8.14844L40.5234 9.70312C40.138 9.52083 39.7292 9.36198 39.2969 9.22656C38.8698 9.08594 38.4193 9.01562 37.9453 9.01562ZM48.4375 19L48.0703 17.7969H48.0078C47.5911 18.3229 47.1719 18.6823 46.75 18.875C46.3281 19.0625 45.7865 19.1562 45.125 19.1562C44.276 19.1562 43.612 18.9271 43.1328 18.4688C42.6589 18.0104 42.4219 17.362 42.4219 16.5234C42.4219 15.6328 42.7526 14.9609 43.4141 14.5078C44.0755 14.0547 45.0833 13.8073 46.4375 13.7656L47.9297 13.7188V13.2578C47.9297 12.7057 47.7995 12.2943 47.5391 12.0234C47.2839 11.7474 46.8854 11.6094 46.3438 11.6094C45.901 11.6094 45.4766 11.6745 45.0703 11.8047C44.6641 11.9349 44.2734 12.0885 43.8984 12.2656L43.3047 10.9531C43.7734 10.7083 44.2865 10.5234 44.8438 10.3984C45.401 10.2682 45.9271 10.2031 46.4219 10.2031C47.5208 10.2031 48.349 10.4427 48.9062 10.9219C49.4688 11.401 49.75 12.1536 49.75 13.1797V19H48.4375ZM45.7031 17.75C46.3698 17.75 46.9036 17.5651 47.3047 17.1953C47.7109 16.8203 47.9141 16.2969 47.9141 15.625V14.875L46.8047 14.9219C45.9401 14.9531 45.3099 15.099 44.9141 15.3594C44.5234 15.6146 44.3281 16.0078 44.3281 16.5391C44.3281 16.9245 44.4427 17.224 44.6719 17.4375C44.901 17.6458 45.2448 17.75 45.7031 17.75ZM54.1484 19H52.3125V6.84375H54.1484V19Z" fill="#A5ADBB"/>
</svg>
