<svg width="313" height="25" viewBox="0 0 313 25" fill="none" xmlns="http://www.w3.org/2000/svg">
<path d="M267.867 16.4922H266.32V19H264.508V16.4922H259.312V15.1016L264.531 7.54688H266.32V14.9688H267.867V16.4922ZM264.508 14.9688V12.1328C264.508 11.8984 264.51 11.6615 264.516 11.4219C264.526 11.1771 264.536 10.9427 264.547 10.7188C264.557 10.4948 264.568 10.2891 264.578 10.1016C264.589 9.90885 264.596 9.75 264.602 9.625H264.539C264.44 9.83333 264.331 10.0469 264.211 10.2656C264.091 10.4792 263.964 10.6875 263.828 10.8906L261.016 14.9688H264.508ZM276.609 19H268.875V17.6172L271.836 14.6172C272.409 14.0339 272.88 13.5312 273.25 13.1094C273.62 12.6823 273.893 12.2786 274.07 11.8984C274.253 11.5182 274.344 11.1042 274.344 10.6562C274.344 10.1042 274.185 9.6875 273.867 9.40625C273.549 9.11979 273.13 8.97656 272.609 8.97656C272.115 8.97656 271.656 9.07552 271.234 9.27344C270.818 9.46615 270.385 9.74219 269.938 10.1016L268.93 8.89062C269.247 8.61979 269.586 8.3724 269.945 8.14844C270.31 7.92448 270.716 7.7474 271.164 7.61719C271.612 7.48177 272.122 7.41406 272.695 7.41406C273.419 7.41406 274.044 7.54427 274.57 7.80469C275.096 8.0599 275.5 8.41667 275.781 8.875C276.068 9.33333 276.211 9.86719 276.211 10.4766C276.211 11.0911 276.089 11.6589 275.844 12.1797C275.599 12.7005 275.25 13.2161 274.797 13.7266C274.344 14.2318 273.805 14.7812 273.18 15.375L271.203 17.3047V17.3906H276.609V19ZM278.359 18.0312C278.359 17.6042 278.469 17.3047 278.688 17.1328C278.911 16.9557 279.182 16.8672 279.5 16.8672C279.818 16.8672 280.089 16.9557 280.312 17.1328C280.542 17.3047 280.656 17.6042 280.656 18.0312C280.656 18.4479 280.542 18.75 280.312 18.9375C280.089 19.1198 279.818 19.2109 279.5 19.2109C279.182 19.2109 278.911 19.1198 278.688 18.9375C278.469 18.75 278.359 18.4479 278.359 18.0312ZM290.57 16.4922H289.023V19H287.211V16.4922H282.016V15.1016L287.234 7.54688H289.023V14.9688H290.57V16.4922ZM287.211 14.9688V12.1328C287.211 11.8984 287.214 11.6615 287.219 11.4219C287.229 11.1771 287.24 10.9427 287.25 10.7188C287.26 10.4948 287.271 10.2891 287.281 10.1016C287.292 9.90885 287.299 9.75 287.305 9.625H287.242C287.143 9.83333 287.034 10.0469 286.914 10.2656C286.794 10.4792 286.667 10.6875 286.531 10.8906L283.719 14.9688H287.211ZM298.438 12.5469C297.917 12.5469 297.456 12.4401 297.055 12.2266C296.659 12.0078 296.349 11.7057 296.125 11.3203C295.901 10.9349 295.789 10.4896 295.789 9.98438C295.789 9.48438 295.898 9.04167 296.117 8.65625C296.341 8.26562 296.651 7.96094 297.047 7.74219C297.448 7.52344 297.911 7.41406 298.438 7.41406C298.964 7.41406 299.424 7.52344 299.82 7.74219C300.216 7.96094 300.526 8.26302 300.75 8.64844C300.979 9.03385 301.094 9.47917 301.094 9.98438C301.094 10.4896 300.979 10.9349 300.75 11.3203C300.526 11.7057 300.216 12.0078 299.82 12.2266C299.424 12.4401 298.964 12.5469 298.438 12.5469ZM298.445 11.3594C298.872 11.3594 299.208 11.2344 299.453 10.9844C299.698 10.7344 299.82 10.401 299.82 9.98438C299.82 9.55208 299.695 9.21094 299.445 8.96094C299.195 8.71094 298.862 8.58594 298.445 8.58594C298.018 8.58594 297.68 8.71094 297.43 8.96094C297.185 9.21094 297.062 9.55208 297.062 9.98438C297.062 10.401 297.185 10.7344 297.43 10.9844C297.674 11.2344 298.013 11.3594 298.445 11.3594ZM308.242 9.00781C307.695 9.00781 307.206 9.10677 306.773 9.30469C306.346 9.5026 305.984 9.78906 305.688 10.1641C305.391 10.5339 305.164 10.9844 305.008 11.5156C304.852 12.0417 304.773 12.6354 304.773 13.2969C304.773 14.1823 304.898 14.9453 305.148 15.5859C305.398 16.2214 305.779 16.7109 306.289 17.0547C306.799 17.3932 307.445 17.5625 308.227 17.5625C308.711 17.5625 309.182 17.5156 309.641 17.4219C310.099 17.3281 310.573 17.2005 311.062 17.0391V18.6328C310.599 18.8151 310.13 18.9479 309.656 19.0312C309.182 19.1146 308.635 19.1562 308.016 19.1562C306.849 19.1562 305.88 18.9141 305.109 18.4297C304.344 17.9453 303.771 17.263 303.391 16.3828C303.016 15.5026 302.828 14.4714 302.828 13.2891C302.828 12.4245 302.948 11.6328 303.188 10.9141C303.427 10.1953 303.776 9.57552 304.234 9.05469C304.693 8.52865 305.258 8.125 305.93 7.84375C306.607 7.55729 307.38 7.41406 308.25 7.41406C308.823 7.41406 309.385 7.47917 309.938 7.60938C310.495 7.73438 311.01 7.91406 311.484 8.14844L310.828 9.69531C310.432 9.50781 310.018 9.34635 309.586 9.21094C309.154 9.07552 308.706 9.00781 308.242 9.00781Z" fill="#A5ADBB"/>
<path d="M103.82 7.57812C105.294 7.57812 106.37 7.88021 107.047 8.48438C107.724 9.08854 108.062 9.9349 108.062 11.0234C108.062 11.5182 107.984 11.9896 107.828 12.4375C107.677 12.8802 107.427 13.2734 107.078 13.6172C106.729 13.9557 106.268 14.224 105.695 14.4219C105.128 14.6198 104.427 14.7188 103.594 14.7188H102.375V19H100.5V7.57812H103.82ZM103.695 9.13281H102.375V13.1562H103.398C103.987 13.1562 104.487 13.0885 104.898 12.9531C105.31 12.8125 105.622 12.5911 105.836 12.2891C106.049 11.987 106.156 11.5885 106.156 11.0938C106.156 10.4323 105.956 9.9401 105.555 9.61719C105.159 9.29427 104.539 9.13281 103.695 9.13281ZM114.961 7.57812L110.703 19H108.984L113.242 7.57812H114.961ZM118.453 19H116.594V7.57812H123.047V9.15625H118.453V12.7188H122.75V14.2891H118.453V19ZM129.742 7.57812L125.484 19H123.766L128.023 7.57812H129.742ZM136.242 9.00781C135.695 9.00781 135.206 9.10677 134.773 9.30469C134.346 9.5026 133.984 9.78906 133.688 10.1641C133.391 10.5339 133.164 10.9844 133.008 11.5156C132.852 12.0417 132.773 12.6354 132.773 13.2969C132.773 14.1823 132.898 14.9453 133.148 15.5859C133.398 16.2214 133.779 16.7109 134.289 17.0547C134.799 17.3932 135.445 17.5625 136.227 17.5625C136.711 17.5625 137.182 17.5156 137.641 17.4219C138.099 17.3281 138.573 17.2005 139.062 17.0391V18.6328C138.599 18.8151 138.13 18.9479 137.656 19.0312C137.182 19.1146 136.635 19.1562 136.016 19.1562C134.849 19.1562 133.88 18.9141 133.109 18.4297C132.344 17.9453 131.771 17.263 131.391 16.3828C131.016 15.5026 130.828 14.4714 130.828 13.2891C130.828 12.4245 130.948 11.6328 131.188 10.9141C131.427 10.1953 131.776 9.57552 132.234 9.05469C132.693 8.52865 133.258 8.125 133.93 7.84375C134.607 7.55729 135.38 7.41406 136.25 7.41406C136.823 7.41406 137.385 7.47917 137.938 7.60938C138.495 7.73438 139.01 7.91406 139.484 8.14844L138.828 9.69531C138.432 9.50781 138.018 9.34635 137.586 9.21094C137.154 9.07552 136.706 9.00781 136.242 9.00781ZM141.062 18.0312C141.062 17.6042 141.172 17.3047 141.391 17.1328C141.615 16.9557 141.885 16.8672 142.203 16.8672C142.521 16.8672 142.792 16.9557 143.016 17.1328C143.245 17.3047 143.359 17.6042 143.359 18.0312C143.359 18.4479 143.245 18.75 143.016 18.9375C142.792 19.1198 142.521 19.2109 142.203 19.2109C141.885 19.2109 141.615 19.1198 141.391 18.9375C141.172 18.75 141.062 18.4479 141.062 18.0312ZM141.062 11.3438C141.062 10.9115 141.172 10.6068 141.391 10.4297C141.615 10.2526 141.885 10.1641 142.203 10.1641C142.521 10.1641 142.792 10.2526 143.016 10.4297C143.245 10.6068 143.359 10.9115 143.359 11.3438C143.359 11.7552 143.245 12.0547 143.016 12.2422C142.792 12.4245 142.521 12.5156 142.203 12.5156C141.885 12.5156 141.615 12.4245 141.391 12.2422C141.172 12.0547 141.062 11.7552 141.062 11.3438ZM154.68 19H152.836V11.6484C152.836 11.4036 152.839 11.1589 152.844 10.9141C152.849 10.6693 152.854 10.4297 152.859 10.1953C152.87 9.96094 152.883 9.73698 152.898 9.52344C152.789 9.64323 152.654 9.77344 152.492 9.91406C152.336 10.0547 152.169 10.2005 151.992 10.3516L150.68 11.3984L149.758 10.2344L153.148 7.57812H154.68V19ZM162.289 7.42188C162.951 7.42188 163.547 7.52604 164.078 7.73438C164.609 7.9375 165.031 8.24219 165.344 8.64844C165.656 9.05469 165.812 9.55729 165.812 10.1562C165.812 10.6198 165.716 11.0234 165.523 11.3672C165.336 11.7109 165.081 12.013 164.758 12.2734C164.435 12.5286 164.073 12.7552 163.672 12.9531C164.12 13.1719 164.531 13.4245 164.906 13.7109C165.286 13.9922 165.591 14.3229 165.82 14.7031C166.055 15.0833 166.172 15.5286 166.172 16.0391C166.172 16.6797 166.008 17.2344 165.68 17.7031C165.357 18.1667 164.906 18.526 164.328 18.7812C163.75 19.0312 163.076 19.1562 162.305 19.1562C161.477 19.1562 160.771 19.0339 160.188 18.7891C159.604 18.5443 159.161 18.1953 158.859 17.7422C158.557 17.2839 158.406 16.737 158.406 16.1016C158.406 15.5755 158.51 15.1198 158.719 14.7344C158.927 14.349 159.206 14.0156 159.555 13.7344C159.909 13.4531 160.297 13.2161 160.719 13.0234C160.359 12.8099 160.031 12.5703 159.734 12.3047C159.438 12.0339 159.201 11.724 159.023 11.375C158.852 11.0208 158.766 10.612 158.766 10.1484C158.766 9.55469 158.924 9.05729 159.242 8.65625C159.56 8.25 159.984 7.94271 160.516 7.73438C161.052 7.52604 161.643 7.42188 162.289 7.42188ZM160.156 16.0312C160.156 16.5312 160.333 16.9427 160.688 17.2656C161.042 17.5885 161.57 17.75 162.273 17.75C162.971 17.75 163.503 17.5911 163.867 17.2734C164.232 16.9557 164.414 16.5365 164.414 16.0156C164.414 15.6823 164.32 15.388 164.133 15.1328C163.951 14.8776 163.703 14.651 163.391 14.4531C163.083 14.25 162.742 14.0625 162.367 13.8906L162.117 13.7891C161.711 13.9609 161.362 14.1562 161.07 14.375C160.779 14.5885 160.552 14.8307 160.391 15.1016C160.234 15.3724 160.156 15.6823 160.156 16.0312ZM162.273 8.83594C161.768 8.83594 161.352 8.96094 161.023 9.21094C160.701 9.45573 160.539 9.8099 160.539 10.2734C160.539 10.6016 160.617 10.8828 160.773 11.1172C160.935 11.3516 161.151 11.5547 161.422 11.7266C161.693 11.8932 161.992 12.0495 162.32 12.1953C162.638 12.0547 162.924 11.901 163.18 11.7344C163.44 11.5625 163.646 11.3594 163.797 11.125C163.953 10.8854 164.031 10.599 164.031 10.2656C164.031 9.80729 163.867 9.45573 163.539 9.21094C163.216 8.96094 162.794 8.83594 162.273 8.83594ZM172.992 7.57812L168.734 19H167.016L171.273 7.57812H172.992ZM181.992 16.4922H180.445V19H178.633V16.4922H173.438V15.1016L178.656 7.54688H180.445V14.9688H181.992V16.4922ZM178.633 14.9688V12.1328C178.633 11.8984 178.635 11.6615 178.641 11.4219C178.651 11.1771 178.661 10.9427 178.672 10.7188C178.682 10.4948 178.693 10.2891 178.703 10.1016C178.714 9.90885 178.721 9.75 178.727 9.625H178.664C178.565 9.83333 178.456 10.0469 178.336 10.2656C178.216 10.4792 178.089 10.6875 177.953 10.8906L175.141 14.9688H178.633ZM188.398 7.57812L184.141 19H182.422L186.68 7.57812H188.398ZM197.398 16.4922H195.852V19H194.039V16.4922H188.844V15.1016L194.062 7.54688H195.852V14.9688H197.398V16.4922ZM194.039 14.9688V12.1328C194.039 11.8984 194.042 11.6615 194.047 11.4219C194.057 11.1771 194.068 10.9427 194.078 10.7188C194.089 10.4948 194.099 10.2891 194.109 10.1016C194.12 9.90885 194.128 9.75 194.133 9.625H194.07C193.971 9.83333 193.862 10.0469 193.742 10.2656C193.622 10.4792 193.495 10.6875 193.359 10.8906L190.547 14.9688H194.039ZM203.805 19H201.961V11.6484C201.961 11.4036 201.964 11.1589 201.969 10.9141C201.974 10.6693 201.979 10.4297 201.984 10.1953C201.995 9.96094 202.008 9.73698 202.023 9.52344C201.914 9.64323 201.779 9.77344 201.617 9.91406C201.461 10.0547 201.294 10.2005 201.117 10.3516L199.805 11.3984L198.883 10.2344L202.273 7.57812H203.805V19Z" fill="#A5ADBB"/>
<path d="M8.45312 19H0.71875V17.6172L3.67969 14.6172C4.2526 14.0339 4.72396 13.5312 5.09375 13.1094C5.46354 12.6823 5.73698 12.2786 5.91406 11.8984C6.09635 11.5182 6.1875 11.1042 6.1875 10.6562C6.1875 10.1042 6.02865 9.6875 5.71094 9.40625C5.39323 9.11979 4.97396 8.97656 4.45312 8.97656C3.95833 8.97656 3.5 9.07552 3.07812 9.27344C2.66146 9.46615 2.22917 9.74219 1.78125 10.1016L0.773438 8.89062C1.09115 8.61979 1.42969 8.3724 1.78906 8.14844C2.15365 7.92448 2.5599 7.7474 3.00781 7.61719C3.45573 7.48177 3.96615 7.41406 4.53906 7.41406C5.26302 7.41406 5.88802 7.54427 6.41406 7.80469C6.9401 8.0599 7.34375 8.41667 7.625 8.875C7.91146 9.33333 8.05469 9.86719 8.05469 10.4766C8.05469 11.0911 7.93229 11.6589 7.6875 12.1797C7.44271 12.7005 7.09375 13.2161 6.64062 13.7266C6.1875 14.2318 5.64844 14.7812 5.02344 15.375L3.04688 17.3047V17.3906H8.45312V19ZM11.1797 19L15.6641 9.1875H9.73438V7.57812H17.6406V8.83594L13.1562 19H11.1797ZM26.7656 13.2812C26.7656 14.2031 26.6927 15.0286 26.5469 15.7578C26.4062 16.4818 26.1823 17.0964 25.875 17.6016C25.5677 18.1068 25.1667 18.4922 24.6719 18.7578C24.1771 19.0234 23.5781 19.1562 22.875 19.1562C21.9948 19.1562 21.2682 18.9245 20.6953 18.4609C20.1224 17.9922 19.6979 17.3203 19.4219 16.4453C19.1458 15.5651 19.0078 14.5104 19.0078 13.2812C19.0078 12.0521 19.1328 11 19.3828 10.125C19.638 9.24479 20.0495 8.57031 20.6172 8.10156C21.1849 7.63281 21.9375 7.39844 22.875 7.39844C23.7604 7.39844 24.4896 7.63281 25.0625 8.10156C25.6406 8.5651 26.0677 9.23698 26.3438 10.1172C26.625 10.9922 26.7656 12.0469 26.7656 13.2812ZM20.8594 13.2812C20.8594 14.2448 20.9219 15.0495 21.0469 15.6953C21.1771 16.3411 21.3906 16.8255 21.6875 17.1484C21.9844 17.4661 22.3802 17.625 22.875 17.625C23.3698 17.625 23.7656 17.4661 24.0625 17.1484C24.3594 16.8307 24.5729 16.349 24.7031 15.7031C24.8385 15.0573 24.9062 14.25 24.9062 13.2812C24.9062 12.3229 24.8411 11.5208 24.7109 10.875C24.5807 10.2292 24.3672 9.74479 24.0703 9.42188C23.7734 9.09375 23.375 8.92969 22.875 8.92969C22.375 8.92969 21.9766 9.09375 21.6797 9.42188C21.388 9.74479 21.1771 10.2292 21.0469 10.875C20.9219 11.5208 20.8594 12.3229 20.8594 13.2812ZM37.9922 9.00781C37.4453 9.00781 36.9557 9.10677 36.5234 9.30469C36.0964 9.5026 35.7344 9.78906 35.4375 10.1641C35.1406 10.5339 34.9141 10.9844 34.7578 11.5156C34.6016 12.0417 34.5234 12.6354 34.5234 13.2969C34.5234 14.1823 34.6484 14.9453 34.8984 15.5859C35.1484 16.2214 35.5286 16.7109 36.0391 17.0547C36.5495 17.3932 37.1953 17.5625 37.9766 17.5625C38.4609 17.5625 38.9323 17.5156 39.3906 17.4219C39.849 17.3281 40.3229 17.2005 40.8125 17.0391V18.6328C40.349 18.8151 39.8802 18.9479 39.4062 19.0312C38.9323 19.1146 38.3854 19.1562 37.7656 19.1562C36.599 19.1562 35.6302 18.9141 34.8594 18.4297C34.0938 17.9453 33.5208 17.263 33.1406 16.3828C32.7656 15.5026 32.5781 14.4714 32.5781 13.2891C32.5781 12.4245 32.6979 11.6328 32.9375 10.9141C33.1771 10.1953 33.526 9.57552 33.9844 9.05469C34.4427 8.52865 35.0078 8.125 35.6797 7.84375C36.3568 7.55729 37.1302 7.41406 38 7.41406C38.5729 7.41406 39.1354 7.47917 39.6875 7.60938C40.2448 7.73438 40.7604 7.91406 41.2344 8.14844L40.5781 9.69531C40.1823 9.50781 39.7682 9.34635 39.3359 9.21094C38.9036 9.07552 38.4557 9.00781 37.9922 9.00781ZM46.4688 10.1875C47.5625 10.1875 48.388 10.4297 48.9453 10.9141C49.5078 11.3984 49.7891 12.1536 49.7891 13.1797V19H48.4844L48.1328 17.7734H48.0703C47.8255 18.0859 47.5729 18.3438 47.3125 18.5469C47.0521 18.75 46.75 18.901 46.4062 19C46.0677 19.1042 45.6536 19.1562 45.1641 19.1562C44.6484 19.1562 44.1875 19.0625 43.7812 18.875C43.375 18.6823 43.0547 18.3906 42.8203 18C42.5859 17.6094 42.4688 17.1146 42.4688 16.5156C42.4688 15.625 42.7995 14.9557 43.4609 14.5078C44.1276 14.0599 45.1328 13.8125 46.4766 13.7656L47.9766 13.7109V13.2578C47.9766 12.6589 47.8359 12.2318 47.5547 11.9766C47.2786 11.7214 46.888 11.5938 46.3828 11.5938C45.9505 11.5938 45.5312 11.6562 45.125 11.7812C44.7188 11.9062 44.3229 12.0599 43.9375 12.2422L43.3438 10.9453C43.7656 10.7214 44.2448 10.5391 44.7812 10.3984C45.3229 10.2578 45.8854 10.1875 46.4688 10.1875ZM47.9688 14.8672L46.8516 14.9062C45.9349 14.9375 45.2917 15.0938 44.9219 15.375C44.5521 15.6562 44.3672 16.0417 44.3672 16.5312C44.3672 16.9583 44.4948 17.2708 44.75 17.4688C45.0052 17.6615 45.3411 17.7578 45.7578 17.7578C46.3932 17.7578 46.9193 17.5781 47.3359 17.2188C47.7578 16.8542 47.9688 16.3203 47.9688 15.6172V14.8672ZM54.2031 19H52.3594V6.84375H54.2031V19Z" fill="#A5ADBB"/>
</svg>
